<?xml version="1.0" encoding="utf-8"?><svg xmlns="http://www.w3.org/2000/svg" xmlns:xlink="http://www.w3.org/1999/xlink"><symbol viewBox="0 0 26 17" id="bed" xmlns="http://www.w3.org/2000/svg"><defs><style>.acls-1{fill-rule:evenodd}</style></defs><path id="aForma_1_копия_43" data-name="Forma 1 копия 43" class="acls-1" d="M556.62 73h-2.164a.366.366 0 0 1-.378-.353v-2.6H534.1v2.6a.367.367 0 0 1-.379.353h-2.343a.365.365 0 0 1-.378-.357V56.349a.366.366 0 0 1 .375-.349h2.343a.367.367 0 0 1 .379.353v4.842a1.817 1.817 0 0 1 .982-.285h4.684a1.687 1.687 0 0 1 1.738 1.625V63a1.543 1.543 0 0 1-.3.919h12.882V60.7a.366.366 0 0 1 .378-.354h2.164a.366.366 0 0 1 .375.354v11.943a.366.366 0 0 1-.38.357zm-1.787-.706h1.409V61.055h-1.409V72.29zm-23.08 0h1.588V56.7h-1.588v15.59zm2.344-2.958h19.981v-1.251H534.1v1.247zm0-1.953h19.981v-2.757H534.1v2.753zm.982-3.459h4.684a.952.952 0 0 0 .982-.924v-.468a.953.953 0 0 0-.982-.919h-4.684a.953.953 0 0 0-.982.919V63a.952.952 0 0 0 .982.92z" transform="translate(-531 -56)"/></symbol><symbol viewBox="0 0 24 16.125" id="bed-2" xmlns="http://www.w3.org/2000/svg"><defs><style>.bcls-1{fill:#333;fill-rule:evenodd}</style></defs><path id="bShape_1_копия_82" data-name="Shape 1 копия 82" class="bcls-1" d="M362.223 392.948h-.3v-5.954h-19.915v5.954h-.237a1.831 1.831 0 0 0-1.771 1.877v8.294h2.9v-2.047h18.2v2.047h2.9v-8.294a1.831 1.831 0 0 0-1.777-1.877zm-19.247-4.929h17.982v4.93h-1.039v-2.766a1.166 1.166 0 0 0-1.13-1.195h-4.673a1.165 1.165 0 0 0-1.128 1.195v2.766h-1.949v-2.735a1.165 1.165 0 0 0-1.129-1.195h-4.7a1.166 1.166 0 0 0-1.129 1.195v2.735h-1.1v-4.93zm15.975 2.164v2.765h-5v-2.765a.165.165 0 0 1 .161-.169h4.673a.166.166 0 0 1 .166.169zm-8.879.031v2.734h-5.027v-2.734a.166.166 0 0 1 .161-.17h4.7a.167.167 0 0 1 .166.17zm12.959 11.886h-.968v-2.049h-20.13v2.049h-.968v-3.168h22.066v3.168zm0-4.193h-22.066v-3.078a.832.832 0 0 1 .806-.852h20.452a.831.831 0 0 1 .807.852v3.071z" transform="translate(-340 -387)"/></symbol><symbol viewBox="0 0 19 15" id="camera" xmlns="http://www.w3.org/2000/svg"><defs><style>.ccls-1{fill:#fff;fill-rule:evenodd}</style></defs><path id="cShape_1_копия_72" data-name="Shape 1 копия 72" class="ccls-1" d="M288 249.585v8.155a2.288 2.288 0 0 0 2.317 2.26h14.362a2.289 2.289 0 0 0 2.321-2.26v-8.155a2.178 2.178 0 0 0-2.207-2.145h-3.086l-.074-.313a2.8 2.8 0 0 0-2.76-2.131h-2.75a2.81 2.81 0 0 0-2.761 2.131l-.073.313H290.2a2.179 2.179 0 0 0-2.2 2.145zm5.669-1.221a.469.469 0 0 0 .461-.359l.16-.67a1.862 1.862 0 0 1 1.833-1.414h2.75a1.865 1.865 0 0 1 1.834 1.414l.158.67a.476.476 0 0 0 .462.359h3.463a1.24 1.24 0 0 1 1.256 1.221v8.155a1.351 1.351 0 0 1-1.369 1.332h-14.36a1.351 1.351 0 0 1-1.369-1.332v-8.155a1.24 1.24 0 0 1 1.256-1.221h3.463zm-2.454 1.354a.619.619 0 1 1-.637.619.628.628 0 0 1 .635-.619zm6.284 7.905a3.882 3.882 0 1 0-3.99-3.88 3.942 3.942 0 0 0 3.991 3.88zm0-6.838a2.958 2.958 0 1 1-3.039 2.958 3.006 3.006 0 0 1 3.04-2.958z" transform="translate(-288 -245)"/></symbol><symbol viewBox="0 0 24 24" id="check" xmlns="http://www.w3.org/2000/svg"><defs><style>.dcls-1{fill:#42be56;fill-rule:evenodd}</style></defs><path id="dForma_1_копия_68" data-name="Forma 1 копия 68" class="dcls-1" d="M76.3 335.584a.749.749 0 0 0-1.024.275l-4.8 8.305-2.676-2.473a.75.75 0 1 0-1.094 1.025l3.428 3.162a.748.748 0 0 0 1.06.034c.092-.085 5.385-9.3 5.385-9.3a.752.752 0 0 0-.279-1.028zm-4.52-6.8a12 12 0 1 0 12 12 12 12 0 0 0-12.001-11.999zm0 23.21a11.213 11.213 0 1 1 11.212-11.212A11.213 11.213 0 0 1 71.779 352z" transform="translate(-59.781 -328.781)"/></symbol><symbol viewBox="0 0 23.656 12.75" id="coffee" xmlns="http://www.w3.org/2000/svg"><defs><style>.ecls-1{fill:#42be56;fill-rule:evenodd}</style></defs><path id="eForma_1_копия_66" data-name="Forma 1 копия 66" class="ecls-1" d="M358.85 370.3a.129.129 0 0 0 .021 0c2.923 0 5.126-1.952 5.126-4.745a.4.4 0 0 0-.394-.409h-3.567c.012-.268.018-.447.018-.724a.4.4 0 0 0-.395-.408h-16.377a.4.4 0 0 0-.393.408c0 3.964.972 6.757 3.105 8.644h-5.265a.4.4 0 0 0-.395.408c0 .618 2.827 1.792 2.855 1.8a22.625 22.625 0 0 0 8.188 1.513c7.329 0 10.744-2.879 10.886-2.99a.415.415 0 0 0 .137-.455.393.393 0 0 0-.374-.279h-5.266a8.278 8.278 0 0 0 2.09-2.763zm4.341-4.331a3.917 3.917 0 0 1-3.993 3.506 12.937 12.937 0 0 0 .787-3.506h3.206zm-11.814 10.008a19.913 19.913 0 0 1-9.172-2.09h18.3a20.124 20.124 0 0 1-9.128 2.09zm-4.054-2.906c-2.392-1.545-3.556-4.233-3.642-8.236h15.58c-.086 4-1.437 6.691-3.83 8.236h-8.108z" transform="translate(-340.344 -364.031)"/></symbol><symbol viewBox="0 0 24 16.281" id="conditioner" xmlns="http://www.w3.org/2000/svg"><defs><style>.fcls-1{fill:#3587e0;fill-rule:evenodd}</style></defs><path id="fic_AirConditioning_копия_14" data-name="ic_AirConditioning копия 14" class="fcls-1" d="M557 208h-22a.98.98 0 0 0-1 1v8a.98.98 0 0 0 1 1h22a.98.98 0 0 0 1-1v-8a.979.979 0 0 0-1-1zm0 9h-22v-8h22v8zm-2-4h-18c-1 0-1 1 0 1h18c1 0 1-1 0-1zm-8.769 7.67a.861.861 0 0 1-.6-.609 1.127 1.127 0 0 1 .56-.648.355.355 0 0 0 .16-.494.361.361 0 0 0-.52-.153 1.58 1.58 0 0 0-1 1.295 1.68 1.68 0 0 0 1 1.334.862.862 0 0 1 .6.61.952.952 0 0 1-.6.609.329.329 0 0 0-.16.5.427.427 0 0 0 .36.19.386.386 0 0 0 .2-.037 1.584 1.584 0 0 0 1-1.3 1.536 1.536 0 0 0-1.002-1.3zM555 215h-18c-1 0-1 1 0 1h18c1 0 1-1 0-1zm-13-4h-5c-1 0-1 1 0 1h5c1 0 1-1 0-1zm13 0h-1c-1 0-1 1 0 1h1c1 0 1-1 0-1zm-4 0h-1c-1 0-1 1 0 1h1c1 0 1-1 0-1zm-.769 10.672a.864.864 0 0 1-.6-.608 1.121 1.121 0 0 1 .561-.648.357.357 0 0 0 .16-.5.363.363 0 0 0-.52-.152 1.581 1.581 0 0 0-1 1.3 1.678 1.678 0 0 0 1 1.332.867.867 0 0 1 .6.61.955.955 0 0 1-.6.61.329.329 0 0 0-.16.5.423.423 0 0 0 .36.19.384.384 0 0 0 .2-.037 1.583 1.583 0 0 0 1-1.3 1.536 1.536 0 0 0-1.003-1.302zm-8 0a.862.862 0 0 1-.6-.608 1.114 1.114 0 0 1 .56-.648.358.358 0 0 0 .161-.5.364.364 0 0 0-.521-.152 1.581 1.581 0 0 0-1 1.3 1.678 1.678 0 0 0 1 1.332.867.867 0 0 1 .6.61.955.955 0 0 1-.6.61.329.329 0 0 0-.16.5.422.422 0 0 0 .36.19.387.387 0 0 0 .2-.037 1.583 1.583 0 0 0 1-1.3 1.536 1.536 0 0 0-1.002-1.302z" transform="translate(-534 -208)"/></symbol><symbol viewBox="0 0 17 23" id="group" xmlns="http://www.w3.org/2000/svg"><defs><style>.gcls-1{fill:#333;fill-rule:evenodd}</style></defs><path id="gShape_1_копия_79" data-name="Shape 1 копия 79" class="gcls-1" d="M356.057 90a2.953 2.953 0 1 0 2.97 2.954 2.963 2.963 0 0 0-2.97-2.954zm0 4.736a1.783 1.783 0 1 1 1.792-1.782 1.789 1.789 0 0 1-1.792 1.778zm-6.825 1.164a2.953 2.953 0 1 0-2.971-2.953 2.964 2.964 0 0 0 2.971 2.953zm0-4.737a1.783 1.783 0 1 1-1.794 1.784 1.787 1.787 0 0 1 1.794-1.781zm8.82 5.334h-2.529a.588.588 0 1 0 0 1.175h2.529a1.765 1.765 0 0 1 1.768 1.758v3.743a1.766 1.766 0 0 1-1.163 1.649.588.588 0 0 0-.384.549v5.285a1.166 1.166 0 0 1-1.169 1.162h-2.672a.588.588 0 1 0 0 1.175h2.668a2.342 2.342 0 0 0 2.346-2.331v-4.922a2.94 2.94 0 0 0 1.554-2.575v-3.741a2.937 2.937 0 0 0-2.948-2.924zM347.9 112.982h2.672a2.342 2.342 0 0 0 2.345-2.332v-4.907a2.94 2.94 0 0 0 1.548-2.578v-3.741a2.942 2.942 0 0 0-2.947-2.929h-4.57A2.942 2.942 0 0 0 344 99.424v3.741a2.94 2.94 0 0 0 1.548 2.578v4.907a2.35 2.35 0 0 0 2.352 2.332zm-2.716-9.817v-3.741a1.765 1.765 0 0 1 1.769-1.759h4.571a1.765 1.765 0 0 1 1.768 1.759v3.741a1.766 1.766 0 0 1-1.158 1.649.591.591 0 0 0-.385.551v5.285a1.166 1.166 0 0 1-1.168 1.161h-2.672a1.166 1.166 0 0 1-1.168-1.161v-5.285a.591.591 0 0 0-.384-.551 1.758 1.758 0 0 1-1.177-1.649z" transform="translate(-344 -90)"/></symbol><symbol viewBox="0 0 384 448" id="info" xmlns="http://www.w3.org/2000/svg"><path d="M256 344v-40c0-4.5-3.5-8-8-8h-24V168c0-4.5-3.5-8-8-8h-80c-4.5 0-8 3.5-8 8v40c0 4.5 3.5 8 8 8h24v80h-24c-4.5 0-8 3.5-8 8v40c0 4.5 3.5 8 8 8h112c4.5 0 8-3.5 8-8zm-32-224V80c0-4.5-3.5-8-8-8h-48c-4.5 0-8 3.5-8 8v40c0 4.5 3.5 8 8 8h48c4.5 0 8-3.5 8-8zm160 104c0 106-86 192-192 192S0 330 0 224 86 32 192 32s192 86 192 192z"/></symbol><symbol viewBox="0 0 24 17" id="no-smoking" xmlns="http://www.w3.org/2000/svg"><defs><style>.icls-1{fill-rule:evenodd}</style></defs><path id="iShape_1_копия_79" data-name="Shape 1 копия 79" class="icls-1" d="M535.408 105.541h.758v.787h-.758v-.787zm-1.515 0h.757v.787h-.757v-.787zm-.758-.787h.758v.787h-.758v-.787zm1.515 0h.758v.787h-.758v-.787zm.758 2.361v-.787h-.758v.787h-.757v-.787h-.758v.787h-.38v-.787h.38v-.786h-.38v-.788h.38v-.787h.758v.787h.757v-.787h.758v.787h.758v-.787h4.8v-.787H532v4.72h12.68v-.786h-9.272zm8.944-3.935v.787h3.94v3.933H556v-4.72h-11.648zm10.888 3.935h-6.189v-3.148h6.189v3.148zM532 99.718h.758v.787H532v-.787zm0-1.574h.758v.787H532v-.787zm0 3.147h.758v.786H532v-.786zm1.706-1.573h.758v.787h-.764v-.787zm0-3.148h.758v.787h-.764v-.787zm0 1.574h.758v.787h-.764v-.787zm0 3.147h.758v.786h-.764v-.786zm1.705-3.147h.758v.787h-.758v-.787zm0-1.574h.758v.787h-.758v-.787zm0-1.574h.758v.788h-.758V95zm0 6.3h.758v.786h-.758v-.786zm0-1.573h.758v.787h-.758v-.792zm2.789-.272l.536-.557 12.089 12.551-.537.556z" transform="translate(-532 -95)"/></symbol><symbol viewBox="0 0 23.219 23.969" id="pool" xmlns="http://www.w3.org/2000/svg"><defs><style>.jcls-1{fill:#fff;fill-rule:evenodd}</style></defs><path id="jShape_1_копия_57" data-name="Shape 1 копия 57" class="jcls-1" d="M81.841 427.489a.38.38 0 0 0-.377.385 1.229 1.229 0 1 1-2.456 0 .376.376 0 1 0-.752 0 1.229 1.229 0 1 1-2.457 0 .376.376 0 1 0-.752 0 1.229 1.229 0 1 1-2.457 0 .376.376 0 1 0-.753 0 1.229 1.229 0 1 1-2.457 0 .376.376 0 1 0-.752 0 1.229 1.229 0 1 1-2.457 0 .376.376 0 1 0-.753 0 1.229 1.229 0 1 1-2.457 0 .376.376 0 1 0-.752 0 1.229 1.229 0 1 1-2.456 0 .377.377 0 1 0-.753 0 2.007 2.007 0 0 0 1.98 2.026 1.964 1.964 0 0 0 1.6-.84 1.953 1.953 0 0 0 3.21 0 1.953 1.953 0 0 0 3.21 0 1.953 1.953 0 0 0 3.209 0 1.953 1.953 0 0 0 3.209 0 1.952 1.952 0 0 0 3.209 0 1.965 1.965 0 0 0 1.605.84 2.006 2.006 0 0 0 1.98-2.026.379.379 0 0 0-.371-.385zm0 3.079a.381.381 0 0 0-.377.385 1.229 1.229 0 1 1-2.456 0 .376.376 0 1 0-.752 0 1.229 1.229 0 1 1-2.457 0 .376.376 0 1 0-.752 0 1.229 1.229 0 1 1-2.457 0 .376.376 0 1 0-.753 0 1.229 1.229 0 1 1-2.457 0 .376.376 0 1 0-.752 0 1.229 1.229 0 1 1-2.457 0 .376.376 0 1 0-.753 0 1.229 1.229 0 1 1-2.457 0 .376.376 0 1 0-.752 0 1.229 1.229 0 1 1-2.456 0 .377.377 0 1 0-.753 0 2.007 2.007 0 0 0 1.982 2.027 1.961 1.961 0 0 0 1.6-.84 1.953 1.953 0 0 0 3.21 0 1.953 1.953 0 0 0 3.21 0 1.953 1.953 0 0 0 3.21 0 1.952 1.952 0 0 0 3.209 0 1.952 1.952 0 0 0 3.209 0 1.967 1.967 0 0 0 1.605.84 2.006 2.006 0 0 0 1.981-2.027.38.38 0 0 0-.375-.385zm-7.436-12.933a.381.381 0 0 0-.376.385v8.652a.376.376 0 1 0 .751 0v-8.652a.38.38 0 0 0-.374-.385zm1.819-8.622a4.2 4.2 0 0 0-4.174 4.079v2.035h-7.2v-2.035a1.438 1.438 0 0 1 1.349-1.667 1.677 1.677 0 0 1 1.661 1.667 1.179 1.179 0 1 0 2.357 0 4.064 4.064 0 0 0-4.017-4.079 4.145 4.145 0 0 0-4.112 4.079v9.033a.376.376 0 1 0 .752 0v-9.033a3.384 3.384 0 0 1 3.36-3.309 3.3 3.3 0 0 1 3.265 3.309.426.426 0 1 1-.852 0 2.44 2.44 0 0 0-2.413-2.438 2.194 2.194 0 0 0-2.1 2.438v14.986a.376.376 0 1 0 .751 0v-4.2h7.2v2.761a.376.376 0 1 0 .751 0v-13.55a3.44 3.44 0 0 1 3.422-3.309 3.276 3.276 0 0 1 3.234 3.309.426.426 0 1 1-.852 0 2.414 2.414 0 0 0-2.382-2.438 2.24 2.24 0 0 0-2.163 2.438v3.285a.376.376 0 1 0 .752 0v-3.285a1.481 1.481 0 0 1 1.411-1.667 1.651 1.651 0 0 1 1.63 1.667 1.179 1.179 0 1 0 2.357 0 4.038 4.038 0 0 0-3.987-4.076zm-4.174 14.1h-7.2v-3.268h7.2v3.268zm0-4.038h-7.2V415.9h7.2v3.176zm-9.591 4.311a.38.38 0 0 0-.376.384v2.875a.376.376 0 1 0 .752 0v-2.875a.38.38 0 0 0-.376-.387z" transform="translate(-59 -409)"/></symbol><symbol viewBox="0 0 25 25" id="rule" xmlns="http://www.w3.org/2000/svg"><defs><style>.kcls-1{fill:#333;fill-rule:evenodd}</style></defs><path id="kForma_1_копия_43" data-name="Forma 1 копия 43" class="kcls-1" d="M365.869 77.284l-3.243-3.245-7.363-7.369-7.363-7.37-6.189-6.193a.411.411 0 0 0-.453-.09.417.417 0 0 0-.258.383v24.179a.416.416 0 0 0 .416.417h24.161a.417.417 0 0 0 .292-.712zm-24.038-.122V54.409l2.238 2.238-.589.59a.417.417 0 0 0 .589.589l.589-.589.883.884-1.178 1.179a.417.417 0 1 0 .589.59l1.178-1.179.884.884-.589.59a.417.417 0 1 0 .589.59l.589-.59.884.885-1.179 1.179a.417.417 0 0 0 .3.711.409.409 0 0 0 .294-.123l1.179-1.178.883.884-.588.59a.416.416 0 0 0 .588.589l.589-.589.884.883-1.178 1.18a.416.416 0 1 0 .589.589l1.179-1.178.883.884-.589.589a.42.42 0 0 0 0 .591.418.418 0 0 0 .589 0l.589-.591.883.885-1.182 1.178a.417.417 0 1 0 .589.59l1.177-1.18.885.885-.589.588a.417.417 0 1 0 .589.59l.589-.59.883.884-1.178 1.18a.417.417 0 1 0 .589.59l1.178-1.179.885.884-.59.589a.417.417 0 0 0 0 .59.412.412 0 0 0 .3.121.417.417 0 0 0 .3-.121l.588-.59.883.884-1.177 1.18a.416.416 0 1 0 .588.589l1.179-1.179.883.884-.589.59a.417.417 0 0 0 .3.712.414.414 0 0 0 .294-.121l.59-.591 2.238 2.24h-22.753zm4.876-11.978a.41.41 0 0 0-.454-.09.415.415 0 0 0-.257.384v7.1a.417.417 0 0 0 .416.417h7.1a.416.416 0 0 0 .294-.711zm.122 6.975v-5.675l5.671 5.676h-5.672z" transform="translate(-341 -53)"/></symbol><symbol viewBox="0 0 24 19" id="safe" xmlns="http://www.w3.org/2000/svg"><defs><style>.lcls-1{fill:#3587e0;fill-rule:evenodd}</style></defs><path id="lic_Safe_копия_15" data-name="ic_Safe копия 15" class="lcls-1" d="M369 222v-17a.979.979 0 0 0-1-1h-22a.979.979 0 0 0-1 1v17a.98.98 0 0 0 1 1h22a.979.979 0 0 0 1-1zm-23 0v-17h22v17h-22zm1-2v-13a.98.98 0 0 1 1-1h17a.98.98 0 0 1 1 1v13a.98.98 0 0 1-1 1h-17a.98.98 0 0 1-1-1zm18.031 0v-13H348v13h17.03zM349 210h1v1h-1v-1zm2 0h1v1h-1v-1zm-2 2h1v1h-1v-1zm4 0h1v1h-1v-1zm-4 2h1v1h-1v-1zm2 0h1v1h-1v-1zm0 2h1v1h-1v-1zm9.5-6a3.5 3.5 0 1 1-3.5 3.5 3.5 3.5 0 0 1 3.5-3.5zm0 1a2.5 2.5 0 1 1-2.5 2.5 2.5 2.5 0 0 1 2.5-2.5zm0 1a1.5 1.5 0 1 1-1.5 1.5 1.5 1.5 0 0 1 1.5-1.5zm0 1a.5.5 0 1 1-.5.5.5.5 0 0 1 .5-.5zm-1 1h-4a.5.5 0 1 1 0-1h4a.5.5 0 1 1 0 1zm-6.5-4h1v1h-1v-1zm-2 2h1v1h-1v-1zm2 2h1v1h-1v-1zm11-5h3v1h-3v-1zm0 8h3v1h-3v-1z" transform="translate(-345 -204)"/></symbol><symbol viewBox="0 0 19.969 24.031" id="shower" xmlns="http://www.w3.org/2000/svg"><defs><style>.mcls-1{fill:#3587e0;fill-rule:evenodd}</style></defs><path id="mic_Shower_копия_14" data-name="ic_Shower копия 14" class="mcls-1" d="M547.508 188.028a.446.446 0 0 1-.5-.328v-11.737a.553.553 0 0 1 1.01 0V187.7a.446.446 0 0 1-.51.328zm-12 0C535 188 535 187 535 187v-16.02s0-6.98 6-6.98 6.994 4.242 7 5a5.512 5.512 0 0 1 4.98 5.6.322.322 0 0 1-.316.327h-10.377a.321.321 0 0 1-.316-.327A5.348 5.348 0 0 1 547 169c-.162-1.02-1-4.03-6-4.03s-5 6.03-5 6.03v16s.016 1.059-.494 1.028zm7.515-14.039h9a4.639 4.639 0 0 0-4.547-4.1 4.548 4.548 0 0 0-4.455 4.1zm11.528 13.8a.445.445 0 0 1-.572-.187l-3.037-11.5a.554.554 0 0 1 .978-.258l3.036 11.5a.445.445 0 0 1-.407.441zm-3.226.134a.448.448 0 0 1-.55-.244l-1.84-11.752a.555.555 0 0 1 1-.156l1.841 11.75a.449.449 0 0 1-.453.398zm-10.908-.134a.447.447 0 0 0 .573-.187l3.036-11.5a.554.554 0 0 0-.978-.258l-3.036 11.5a.445.445 0 0 0 .403.441zm3.225.134a.448.448 0 0 0 .55-.244l1.841-11.752a.556.556 0 0 0-1-.156l-1.84 11.75a.448.448 0 0 0 .447.398z" transform="translate(-535 -164)"/></symbol><symbol viewBox="0 0 24 23" id="silverware" xmlns="http://www.w3.org/2000/svg"><defs><style>.ncls-1{fill:#42be56;fill-rule:evenodd}</style></defs><path id="nShape_1_копия_83" data-name="Shape 1 копия 83" class="ncls-1" d="M362.324 490.394a.426.426 0 0 0-.609 0l-4.469 4.522a.44.44 0 0 0 0 .618.431.431 0 0 0 .609 0l4.469-4.524a.441.441 0 0 0 0-.616zm1.215 1.211a.427.427 0 0 0-.61 0l-4.468 4.522a.441.441 0 0 0 0 .617.431.431 0 0 0 .609 0l4.469-4.523a.439.439 0 0 0 0-.616zm-4.216 7.636l5.547-5.614a.439.439 0 0 0 0-.617.427.427 0 0 0-.61 0l-5.546 5.613a2.268 2.268 0 0 1-2.6.453.426.426 0 0 0-.508.1l-1.885 2.149-8.145 9.289a.018.018 0 0 1-.007.008 1.088 1.088 0 0 1-.077.085 1.367 1.367 0 0 1-1.95 0 1.406 1.406 0 0 1 0-1.973c.025-.027.053-.052.084-.08h.008l5.092-4.576a.439.439 0 0 0 .036-.615.425.425 0 0 0-.608-.037L343.06 508a2.721 2.721 0 0 0-.133.123 2.289 2.289 0 0 0 0 3.208 2.224 2.224 0 0 0 3.17 0 1.806 1.806 0 0 0 .122-.134l6.207-7.078 6.207 7.079c.041.048.082.093.123.133a2.223 2.223 0 0 0 3.169 0 2.29 2.29 0 0 0 0-3.207 2.694 2.694 0 0 0-.133-.124l-7.143-6.417 1.4-1.594a3.127 3.127 0 0 0 3.274-.748zm1.9 9.416h.008c.032.028.059.053.085.08a1.408 1.408 0 0 1 0 1.973 1.368 1.368 0 0 1-1.951 0 1.086 1.086 0 0 1-.078-.084v-.008L353 503.463l1.075-1.226zm-.193-19.533a.426.426 0 0 0-.609 0l-5.547 5.614a3.217 3.217 0 0 0-.74 3.316l-1.708 1.533-1.64-1.475a4.426 4.426 0 0 0-.807-5.1 9.793 9.793 0 0 0-4.36-2.681 3.731 3.731 0 0 0-3.716.738 3.843 3.843 0 0 0-.729 3.762 9.957 9.957 0 0 0 2.649 4.412 4.293 4.293 0 0 0 5.041.816s1.6 1.829 1.625 1.854a.43.43 0 0 0 .322.145.422.422 0 0 0 .286-.109l3.837-3.447a.439.439 0 0 0 .1-.515 2.338 2.338 0 0 1 .447-2.632l5.546-5.613a.439.439 0 0 0 .003-.618zM350.847 501l-1.569-1.788a.426.426 0 0 0-.548-.081 3.443 3.443 0 0 1-4.3-.512 9.065 9.065 0 0 1-2.423-4.007 3.021 3.021 0 0 1 .5-2.933 2.925 2.925 0 0 1 2.9-.508 8.938 8.938 0 0 1 3.962 2.452 3.55 3.55 0 0 1 .5 4.35.44.44 0 0 0 .081.555l1.823 1.637z" transform="translate(-341 -489)"/></symbol><symbol viewBox="0 0 23.969 17.813" id="wifi" xmlns="http://www.w3.org/2000/svg"><defs><style>.ocls-1{fill:#3587e0;fill-rule:evenodd}</style></defs><path id="oic_Wi-Fi_копия_18" data-name="ic_Wi-Fi копия 18" class="ocls-1" d="M367.963 169.875a16.876 16.876 0 0 0-23.742 0 .434.434 0 0 0 0 .616.44.44 0 0 0 .618 0 16 16 0 0 1 22.506 0 .43.43 0 0 0 .309.128.435.435 0 0 0 .309-.744zM346.79 172.8a.433.433 0 0 0 0 .615.442.442 0 0 0 .618 0 12.342 12.342 0 0 1 17.367 0 .442.442 0 0 0 .618 0 .433.433 0 0 0 0-.615 13.224 13.224 0 0 0-18.603 0zm9.3.162a9.484 9.484 0 0 0-6.732 2.767.433.433 0 0 0 0 .615.438.438 0 0 0 .618 0 8.7 8.7 0 0 1 12.23 0 .436.436 0 0 0 .617-.615 9.483 9.483 0 0 0-6.732-2.763zm-.124 4.15a2.847 2.847 0 1 0 2.863 2.848 2.858 2.858 0 0 0-2.862-2.844zm0 4.824a1.978 1.978 0 1 1 1.989-1.976 1.985 1.985 0 0 1-1.988 1.98z" transform="translate(-344.125 -165)"/></symbol></svg>